<?xml version="1.0"?>
<svg xmlns="http://www.w3.org/2000/svg" xmlns:xlink="http://www.w3.org/1999/xlink" xmlns:svgjs="http://svgjs.com/svgjs" version="1.1" width="512" height="512" x="0" y="0" viewBox="0 0 512 512" style="enable-background:new 0 0 512 512" xml:space="preserve" class=""><g>
<g xmlns="http://www.w3.org/2000/svg">
	<g>
		<path d="M216.74,132.612c-28.37,0-51.45,23.081-51.45,51.45c0,28.371,23.08,51.451,51.45,51.451s51.45-23.081,51.45-51.451    C268.19,155.692,245.11,132.612,216.74,132.612z M216.74,199.792c-8.673,0-15.729-7.056-15.729-15.73    c0-8.673,7.056-15.729,15.729-15.729s15.729,7.056,15.729,15.729C232.469,192.736,225.413,199.792,216.74,199.792z" fill="#c7c8c9" data-original="#000000" style="" class=""/>
	</g>
</g>
<g xmlns="http://www.w3.org/2000/svg">
	<g>
		<path d="M494.14,416.287h-42.132V77.853c0-9.864-7.997-17.86-17.86-17.86H95.713V17.86C95.713,7.997,87.716,0,77.853,0    c-9.864,0-17.86,7.997-17.86,17.86v42.132H17.86C7.997,59.992,0,67.989,0,77.853c0,9.864,7.997,17.86,17.86,17.86h42.132v338.434    c0,9.864,7.997,17.86,17.86,17.86h338.434v42.132c0,9.864,7.997,17.86,17.86,17.86c9.864,0,17.86-7.997,17.86-17.86v-42.132    h42.132c9.864,0,17.86-7.997,17.86-17.86C512,424.284,504.003,416.287,494.14,416.287z M416.286,416.287H95.713v-42.222    l63.996-67.845l54.081,57.336c7.049,7.473,18.94,7.467,25.985,0l112.58-119.348l63.93,67.77V416.287z M416.287,259.921    l-50.938-53.998c-7.05-7.473-18.94-7.467-25.985,0l-112.58,119.348l-54.083-57.336c-7.049-7.473-18.942-7.468-25.985,0    l-51.004,54.071V95.713h320.574V259.921z" fill="#c7c8c9" data-original="#000000" style="" class=""/>
	</g>
</g>
<g xmlns="http://www.w3.org/2000/svg">
</g>
<g xmlns="http://www.w3.org/2000/svg">
</g>
<g xmlns="http://www.w3.org/2000/svg">
</g>
<g xmlns="http://www.w3.org/2000/svg">
</g>
<g xmlns="http://www.w3.org/2000/svg">
</g>
<g xmlns="http://www.w3.org/2000/svg">
</g>
<g xmlns="http://www.w3.org/2000/svg">
</g>
<g xmlns="http://www.w3.org/2000/svg">
</g>
<g xmlns="http://www.w3.org/2000/svg">
</g>
<g xmlns="http://www.w3.org/2000/svg">
</g>
<g xmlns="http://www.w3.org/2000/svg">
</g>
<g xmlns="http://www.w3.org/2000/svg">
</g>
<g xmlns="http://www.w3.org/2000/svg">
</g>
<g xmlns="http://www.w3.org/2000/svg">
</g>
<g xmlns="http://www.w3.org/2000/svg">
</g>
</g></svg>
